<svg width="32" height="32" viewBox="0 0 32 32" fill="none" xmlns="http://www.w3.org/2000/svg">
<path fill-rule="evenodd" clip-rule="evenodd" d="M9.89635 26.427C10.459 26.427 10.9164 26.8843 10.9164 27.447C10.9164 28.0097 10.459 28.4657 9.89635 28.4657C9.33369 28.4657 8.87769 28.0097 8.87769 27.447C8.87769 26.8843 9.33369 26.427 9.89635 26.427Z" fill="#F67952"/>
<path fill-rule="evenodd" clip-rule="evenodd" d="M24.8996 26.427C25.4622 26.427 25.9196 26.8843 25.9196 27.447C25.9196 28.0097 25.4622 28.4657 24.8996 28.4657C24.3369 28.4657 23.8796 28.0097 23.8796 27.447C23.8796 26.8843 24.3369 26.427 24.8996 26.427Z" fill="#F67952"/>
<path fill-rule="evenodd" clip-rule="evenodd" d="M3.6665 4.33325L6.43984 4.81325L7.72384 20.1106C7.82784 21.3573 8.86917 22.3146 10.1198 22.3146H24.6692C25.8638 22.3146 26.8772 21.4373 27.0492 20.2533L28.3145 11.5093C28.4705 10.4306 27.6345 9.46525 26.5452 9.46525H6.88517" fill="#F67952"/>
</svg>
