<svg width="7" height="7" viewBox="0 0 7 7" fill="none" xmlns="http://www.w3.org/2000/svg">
<path fill-rule="evenodd" clip-rule="evenodd" d="M5.95837 4.00382H4.2455V5.73382C4.2455 6.14382 3.91877 6.47382 3.51283 6.47382C3.10689 6.47382 2.77025 6.14382 2.77025 5.73382V4.00382H1.06728C0.661341 4.00382 0.324707 3.67382 0.324707 3.26382C0.324707 2.84382 0.661341 2.51382 1.06728 2.51382H2.77025V0.783823C2.77025 0.373823 3.10689 0.0438232 3.51283 0.0438232C3.91877 0.0438232 4.2455 0.373823 4.2455 0.783823V2.51382H5.95837C6.36431 2.51382 6.70094 2.84382 6.70094 3.26382C6.70094 3.67382 6.36431 4.00382 5.95837 4.00382Z" fill="#F67952"/>
</svg>
