<svg width="24" height="25" viewBox="0 0 24 25" fill="none" xmlns="http://www.w3.org/2000/svg">
<path opacity="0.4" d="M21.9999 16.4402C21.9999 19.2302 19.7599 21.4902 16.9699 21.5002H16.9599H7.04991C4.26991 21.5002 1.99991 19.2502 1.99991 16.4602V16.4502C1.99991 16.4502 2.00591 12.0242 2.01391 9.79824C2.01491 9.38024 2.49491 9.14624 2.82191 9.40624C5.19791 11.2912 9.44691 14.7282 9.49991 14.7732C10.2099 15.3422 11.1099 15.6632 12.0299 15.6632C12.9499 15.6632 13.8499 15.3422 14.5599 14.7622C14.6129 14.7272 18.7669 11.3932 21.1789 9.47724C21.5069 9.21624 21.9889 9.45024 21.9899 9.86724C21.9999 12.0762 21.9999 16.4402 21.9999 16.4402" fill="#F67952"/>
<path d="M21.476 6.17363C20.61 4.54163 18.906 3.49963 17.03 3.49963H7.05001C5.17401 3.49963 3.47001 4.54163 2.60401 6.17363C2.41001 6.53863 2.50201 6.99363 2.82501 7.25163L10.25 13.1906C10.77 13.6106 11.4 13.8196 12.03 13.8196C12.034 13.8196 12.037 13.8196 12.04 13.8196C12.043 13.8196 12.047 13.8196 12.05 13.8196C12.68 13.8196 13.31 13.6106 13.83 13.1906L21.255 7.25163C21.578 6.99363 21.67 6.53863 21.476 6.17363" fill="#F67952"/>
</svg>
