<svg width="13" height="13" viewBox="0 0 13 13" fill="none" xmlns="http://www.w3.org/2000/svg">
<path d="M8.5403 1.46566L8.5367 1.96566H8.5403V1.46566ZM6.49991 2.15409L6.1957 2.5509L6.49942 2.78375L6.8035 2.55137L6.49991 2.15409ZM6.34092 2.05393L6.08051 2.48083L6.08685 2.48456L6.34092 2.05393ZM6.11303 1.90024L6.34833 1.45906L6.33303 1.4509L6.31722 1.44383L6.11303 1.90024ZM5.91164 1.81014L5.67068 2.24825L5.6887 2.25816L5.70746 2.26655L5.91164 1.81014ZM5.57776 1.67182L5.23339 2.03432L5.31615 2.11294L5.42483 2.14786L5.57776 1.67182ZM5.53006 1.64055L5.74459 1.18891L5.64278 1.14055H5.53006V1.64055ZM5.4988 1.64055L5.3378 2.11392L5.4161 2.14055H5.4988V1.64055ZM4.52842 1.46566L4.54349 0.965888L4.53596 0.965661H4.52842V1.46566ZM4.02495 1.49746V1.99746H4.06123L4.09714 1.99222L4.02495 1.49746ZM3.96135 1.49746V0.997459H3.92899L3.89689 1.00163L3.96135 1.49746ZM3.49021 1.60822L3.64574 2.08348L3.6532 2.08091L3.49021 1.60822ZM1.40689 6.27779L0.930571 6.42984L0.932933 6.43724L0.935523 6.44456L1.40689 6.27779ZM3.00263 8.82112L2.64782 9.17357L2.65551 9.18099L3.00263 8.82112ZM6.37802 11.4498L6.11444 11.8747L6.11478 11.8749L6.37802 11.4498ZM6.51581 11.5351L6.25258 11.9602L6.51256 12.1212L6.77432 11.9631L6.51581 11.5351ZM6.6483 11.4551L6.90685 11.8831L6.91389 11.8787L6.6483 11.4551ZM10.0035 8.82642L10.3514 9.18565L10.3571 9.17998L10.0035 8.82642ZM11.5982 6.27779L12.0704 6.44224L12.073 6.43491L12.0753 6.42752L11.5982 6.27779ZM9.68511 1.14533C9.30968 1.01935 8.92123 0.965661 8.5403 0.965661V1.96566C8.82819 1.96566 9.1075 2.00631 9.36698 2.09338L9.68511 1.14533ZM8.5439 0.965674C7.69377 0.959558 6.87126 1.24104 6.19632 1.75681L6.8035 2.55137C7.30615 2.16726 7.91351 1.96116 8.5367 1.96565L8.5439 0.965674ZM6.80413 1.75729C6.72529 1.69685 6.62889 1.64329 6.59499 1.62329L6.08685 2.48456C6.15895 2.5271 6.17913 2.5382 6.1957 2.5509L6.80413 1.75729ZM6.6013 1.62708C6.60474 1.62918 6.60145 1.62731 6.58495 1.61551C6.56514 1.60135 6.55747 1.59553 6.52898 1.57503C6.48875 1.54608 6.4208 1.49771 6.34833 1.45906L5.87774 2.34141C5.87768 2.34138 5.87815 2.34163 5.87919 2.34223C5.88022 2.34282 5.88167 2.34367 5.88355 2.34482C5.88741 2.34717 5.89242 2.35034 5.89871 2.3545C5.91167 2.36308 5.92663 2.37357 5.94485 2.38669C5.95677 2.39527 5.98785 2.4179 6.00332 2.42896C6.02209 2.44239 6.0506 2.46252 6.08054 2.48078L6.6013 1.62708ZM6.31722 1.44383L6.11583 1.35373L5.70746 2.26655L5.90885 2.35665L6.31722 1.44383ZM6.1526 1.37203C6.00766 1.29232 5.86361 1.23848 5.7307 1.19578L5.42483 2.14786C5.52616 2.18041 5.60364 2.21137 5.67068 2.24825L6.1526 1.37203ZM5.92214 1.30932C5.86686 1.25681 5.80486 1.21754 5.74459 1.18891L5.31554 2.09219C5.29766 2.0837 5.26746 2.06669 5.23339 2.03432L5.92214 1.30932ZM5.53006 1.14055H5.4988V2.14055H5.53006V1.14055ZM5.65979 1.16718C5.29911 1.04451 4.92662 0.977443 4.54349 0.965888L4.51335 1.96543C4.79799 1.97402 5.07206 2.02354 5.3378 2.11392L5.65979 1.16718ZM4.52842 0.965661H4.47012V1.96566H4.52842V0.965661ZM4.47012 0.965661C4.2989 0.965661 4.12686 0.977294 3.95276 1.0027L4.09714 1.99222C4.22087 1.97417 4.34456 1.96566 4.47012 1.96566V0.965661ZM4.02495 0.997459H3.96135V1.99746H4.02495V0.997459ZM3.89689 1.00163C3.70436 1.02666 3.51288 1.07151 3.32721 1.13554L3.6532 2.08091C3.77492 2.03894 3.90036 2.00959 4.02581 1.99329L3.89689 1.00163ZM3.33469 1.13302C1.02416 1.88916 0.273292 4.37075 0.930571 6.42984L1.88321 6.12575C1.34276 4.43264 2.00161 2.62147 3.64572 2.08342L3.33469 1.13302ZM0.935523 6.44456C1.29925 7.47265 1.88534 8.40582 2.6479 9.17349L3.35737 8.46876C2.6996 7.80657 2.1929 7.00037 1.87826 6.11103L0.935523 6.44456ZM2.65551 9.18099C3.71371 10.2017 4.87105 11.1033 6.11444 11.8747L6.6416 11.0249C5.45878 10.2911 4.35739 9.43321 3.34976 8.46126L2.65551 9.18099ZM6.11478 11.8749L6.25258 11.9602L6.77905 11.11L6.64125 11.0247L6.11478 11.8749ZM6.77432 11.9631L6.90681 11.8831L6.3898 11.0271L6.2573 11.1071L6.77432 11.9631ZM6.91389 11.8787C8.15228 11.1023 9.30287 10.201 10.3514 9.1856L9.65571 8.46724C8.65748 9.43394 7.56205 10.2921 6.38272 11.0314L6.91389 11.8787ZM10.3571 9.17998C11.126 8.41103 11.7121 7.47116 12.0704 6.44224L11.126 6.11335C10.8166 7.00187 10.3109 7.81195 9.64999 8.47287L10.3571 9.17998ZM12.0753 6.42752C12.7202 4.37269 11.973 1.88912 9.68064 1.14385L9.37145 2.09485C10.9914 2.62151 11.6539 4.4307 11.1212 6.12807L12.0753 6.42752Z" fill="#FF3535"/>
</svg>
