<svg width="11" height="11" viewBox="0 0 11 11" fill="none" xmlns="http://www.w3.org/2000/svg">
<path d="M8.52604 0.619352C8.20859 0.512828 7.87471 0.465661 7.5403 0.465661C6.80364 0.460361 6.08871 0.704148 5.49991 1.15409C5.45221 1.11752 5.39392 1.0852 5.34092 1.05393C5.28792 1.0216 5.19253 0.942634 5.11303 0.900237L4.91164 0.810142C4.80565 0.751845 4.69489 0.709447 4.57776 0.671819C4.56716 0.66175 4.55126 0.650621 4.53006 0.640551H4.4988C4.18558 0.534027 3.8623 0.47573 3.52842 0.465661H3.47012C3.32173 0.465661 3.17387 0.47573 3.02495 0.497459H2.96135C2.80236 0.518128 2.6439 0.555226 2.49021 0.608223C0.512887 1.25532 -0.191974 3.4017 0.406893 5.27779C0.746074 6.23651 1.29247 7.10619 2.00263 7.82112C3.03555 8.81747 4.16491 9.69722 5.37802 10.4498L5.51581 10.5351L5.6483 10.4551C6.85717 9.69722 7.98017 8.81747 9.00355 7.82642C9.71848 7.11149 10.2643 6.23651 10.5982 5.27779C11.187 3.4017 10.4822 1.25532 8.52604 0.619352Z" fill="#FF3535"/>
</svg>
