<svg width="4" height="16" viewBox="0 0 4 16" fill="none" xmlns="http://www.w3.org/2000/svg">
<path fill-rule="evenodd" clip-rule="evenodd" d="M2.32421 9.74414C3.24584 9.74414 3.99991 8.99008 3.99991 8.06844C3.99991 7.14681 3.24584 6.4067 2.32421 6.4067C1.40257 6.4067 0.649902 7.14681 0.649902 8.06844C0.649902 8.99008 1.40257 9.74414 2.32421 9.74414ZM2.32421 3.48813C3.24584 3.48813 3.99991 2.74803 3.99991 1.81243C3.99991 0.890791 3.24584 0.15069 2.32421 0.15069C1.40257 0.15069 0.649902 0.890791 0.649902 1.81243C0.649902 2.74803 1.40257 3.48813 2.32421 3.48813Z" fill="black"/>
<path d="M3.99991 14.3243C3.99991 15.2459 3.24584 16 2.32421 16C1.40257 16 0.649902 15.2459 0.649902 14.3243C0.649902 13.4027 1.40257 12.6626 2.32421 12.6626C3.24584 12.6626 3.99991 13.4027 3.99991 14.3243Z" fill="black"/>
</svg>
