<svg width="21" height="16" viewBox="0 0 21 16" fill="none" xmlns="http://www.w3.org/2000/svg">
<path fill-rule="evenodd" clip-rule="evenodd" d="M19.8794 6.59996C19.7496 6.72601 19.5735 6.79804 19.3882 6.79804C18.7023 6.79804 18.1462 7.33827 18.1462 7.99554C18.1462 8.65731 18.6958 9.19483 19.3752 9.20204C19.758 9.20564 20.0833 9.46494 20.0833 9.8368V12.1463C20.0833 14.0902 18.4614 15.6667 16.4594 15.6667H13.438C13.1256 15.6667 12.8726 15.4209 12.8726 15.1175V13.1727C12.8726 12.7945 12.5668 12.4974 12.1775 12.4974C11.7975 12.4974 11.4824 12.7945 11.4824 13.1727V15.1175C11.4824 15.4209 11.2294 15.6667 10.918 15.6667H4.5405C2.54783 15.6667 0.916626 14.0911 0.916626 12.1463V9.8368C0.916626 9.46494 1.24194 9.20564 1.62472 9.20204C2.305 9.19483 2.85368 8.65731 2.85368 7.99554C2.85368 7.35627 2.31613 6.87007 1.61174 6.87007C1.42638 6.87007 1.25028 6.79804 1.12053 6.67199C0.990772 6.54594 0.916626 6.37487 0.916626 6.19479V3.86283C0.916626 1.92163 2.55154 0.333374 4.54977 0.333374H10.918C11.2294 0.333374 11.4824 0.579176 11.4824 0.882601V3.18755C11.4824 3.55671 11.7975 3.86283 12.1775 3.86283C12.5668 3.86283 12.8726 3.55671 12.8726 3.18755V0.882601C12.8726 0.579176 13.1256 0.333374 13.438 0.333374H16.4594C18.4614 0.333374 20.0833 1.90902 20.0833 3.85383V6.12276C20.0833 6.30284 20.0091 6.47391 19.8794 6.59996ZM12.1775 10.7507C12.5668 10.7507 12.8726 10.4445 12.8726 10.0754V6.47391C12.8726 6.10476 12.5668 5.79863 12.1775 5.79863C11.7975 5.79863 11.4824 6.10476 11.4824 6.47391V10.0754C11.4824 10.4445 11.7975 10.7507 12.1775 10.7507Z" fill="#297EFF"/>
</svg>
